<svg id="SvgjsSvg1096" width="381" height="646" xmlns="http://www.w3.org/2000/svg" version="1.1" xmlns:xlink="http://www.w3.org/1999/xlink" xmlns:svgjs="http://svgjs.com/svgjs"><defs id="SvgjsDefs1097"><marker id="SvgjsMarker1119" markerWidth="14" markerHeight="10" refX="10" refY="5" viewBox="0 0 14 10" orient="auto" markerUnits="userSpaceOnUse" stroke-dasharray="0,0"><path id="SvgjsPath1120" d="M0,0 L14,5 L0,10 L0,0" fill="#323232" stroke="#323232" stroke-width="1"></path></marker><marker id="SvgjsMarker1127" markerWidth="14" markerHeight="10" refX="10" refY="5" viewBox="0 0 14 10" orient="auto" markerUnits="userSpaceOnUse" stroke-dasharray="0,0"><path id="SvgjsPath1128" d="M0,0 L14,5 L0,10 L0,0" fill="#323232" stroke="#323232" stroke-width="1"></path></marker><marker id="SvgjsMarker1181" markerWidth="14" markerHeight="10" refX="10" refY="5" viewBox="0 0 14 10" orient="auto" markerUnits="userSpaceOnUse" stroke-dasharray="0,0"><path id="SvgjsPath1182" d="M0,0 L14,5 L0,10 L0,0" fill="#323232" stroke="#323232" stroke-width="1"></path></marker></defs><rect id="svgbackgroundid" width="381" height="646" fill="#b2ebf2"></rect><g id="SvgjsG1099" transform="translate(96,25)"><path id="SvgjsPath1100" d="M 0 4Q 0 0 4 0L 165 0Q 169 0 169 4L 169 51Q 169 55 165 55L 4 55Q 0 55 0 51Z" stroke="rgba(50,50,50,1)" stroke-width="2" fill-opacity="1" fill="#ffffff"></path><g id="SvgjsG1101"><text id="SvgjsText1102" font-family="微软雅黑" text-anchor="middle" font-size="13px" width="149px" fill="#323232" font-weight="400" align="middle" lineHeight="125%" anchor="middle" family="微软雅黑" size="13px" weight="400" font-style="" opacity="1" y="17.875" transform="rotate(0)"><tspan id="SvgjsTspan1103" dy="16" x="84.5"><tspan id="SvgjsTspan1104" style="text-decoration:;">patch(oldVnode, vnode)</tspan></tspan></text></g></g><g id="SvgjsG1105" transform="translate(108.25,128)"><path id="SvgjsPath1106" d="M 0 33L 72.25 0L 144.5 33L 72.25 66Z" stroke="rgba(50,50,50,1)" stroke-width="2" fill-opacity="1" fill="#ffffff"></path><g id="SvgjsG1107"><text id="SvgjsText1108" font-family="微软雅黑" text-anchor="middle" font-size="13px" width="125px" fill="#323232" font-weight="400" align="middle" lineHeight="125%" anchor="middle" family="微软雅黑" size="13px" weight="400" font-style="" opacity="1" y="23.705" transform="rotate(0)"><tspan id="SvgjsTspan1109" dy="16" x="72.5"><tspan id="SvgjsTspan1110" style="text-decoration:;">is same vnode?</tspan></tspan></text></g></g><g id="SvgjsG1111" transform="translate(25,225)"><path id="SvgjsPath1112" d="M 0 4Q 0 0 4 0L 96 0Q 100 0 100 4L 100 66Q 100 70 96 70L 4 70Q 0 70 0 66Z" stroke="rgba(50,50,50,1)" stroke-width="2" fill-opacity="1" fill="#ffffff"></path><g id="SvgjsG1113"><text id="SvgjsText1114" font-family="微软雅黑" text-anchor="middle" font-size="13px" width="80px" fill="#323232" font-weight="400" align="middle" lineHeight="125%" anchor="middle" family="微软雅黑" size="13px" weight="400" font-style="" opacity="1" y="25.375" transform="rotate(0)"><tspan id="SvgjsTspan1115" dy="16" x="50"><tspan id="SvgjsTspan1116" style="text-decoration:;">replace</tspan></tspan></text></g></g><g id="SvgjsG1117"><path id="SvgjsPath1118" d="M107.25 161L75 161L75 221.39999999999998" stroke="#323232" stroke-width="2" fill="none" marker-end="url(#SvgjsMarker1119)"></path><rect id="SvgjsRect1121" width="17" height="16" x="66.5" y="167.075" fill="#ffffff"></rect><text id="SvgjsText1122" font-family="微软雅黑" text-anchor="middle" font-size="13px" width="17px" fill="#323232" font-weight="400" align="top" lineHeight="16px" anchor="middle" family="微软雅黑" size="13px" weight="400" font-style="" opacity="1" y="165.45" transform="rotate(0)"><tspan id="SvgjsTspan1123" dy="16" x="75"><tspan id="SvgjsTspan1124" style="text-decoration:;">No</tspan></tspan></text></g><g id="SvgjsG1125"><path id="SvgjsPath1126" d="M180.5 81L180.5 104L180.5 104L180.5 124.4" stroke="#323232" stroke-width="2" fill="none" marker-end="url(#SvgjsMarker1127)"></path></g><g id="SvgjsG1129" transform="translate(228,225)"><path id="SvgjsPath1130" d="M 0 4Q 0 0 4 0L 124 0Q 128 0 128 4L 128 392Q 128 396 124 396L 4 396Q 0 396 0 392Z" stroke="rgba(50,50,50,1)" stroke-width="2" fill-opacity="1" fill="#ffffff"></path><g id="SvgjsG1131"><text id="SvgjsText1132" font-family="微软雅黑" text-anchor="start" font-size="13px" width="108px" fill="#323232" font-weight="400" align="top" lineHeight="125%" anchor="start" family="微软雅黑" size="13px" weight="400" font-style="" opacity="1" y="-1.625" transform="rotate(0)"><tspan id="SvgjsTspan1133" dy="16" x="10"><tspan id="SvgjsTspan1134" style="text-decoration:;">  </tspan></tspan><tspan id="SvgjsTspan1135" dy="16" x="10"><tspan id="SvgjsTspan1136" style="text-decoration:;">    patch vnode</tspan></tspan></text></g></g><g id="SvgjsG1137" transform="translate(242,361)"><path id="SvgjsPath1138" d="M 0 4Q 0 0 4 0L 96 0Q 100 0 100 4L 100 66Q 100 70 96 70L 4 70Q 0 70 0 66Z" stroke="rgba(50,50,50,1)" stroke-width="2" fill-opacity="1" fill="#ffffff"></path><g id="SvgjsG1139"><text id="SvgjsText1140" font-family="微软雅黑" text-anchor="middle" font-size="13px" width="80px" fill="#323232" font-weight="400" align="middle" lineHeight="125%" anchor="middle" family="微软雅黑" size="13px" weight="400" font-style="" opacity="1" y="8.875" transform="rotate(0)"><tspan id="SvgjsTspan1141" dy="16" x="50"><tspan id="SvgjsTspan1142" style="text-decoration:;">oldVnode、</tspan></tspan><tspan id="SvgjsTspan1143" dy="16" x="50"><tspan id="SvgjsTspan1144" style="text-decoration:;">vnode 都有子</tspan></tspan><tspan id="SvgjsTspan1145" dy="16" x="50"><tspan id="SvgjsTspan1146" style="text-decoration:;">节点</tspan></tspan></text></g></g><g id="SvgjsG1147" transform="translate(242,448)"><path id="SvgjsPath1148" d="M 0 4Q 0 0 4 0L 96 0Q 100 0 100 4L 100 66Q 100 70 96 70L 4 70Q 0 70 0 66Z" stroke="rgba(50,50,50,1)" stroke-width="2" fill-opacity="1" fill="#ffffff"></path><g id="SvgjsG1149"><text id="SvgjsText1150" font-family="微软雅黑" text-anchor="middle" font-size="13px" width="80px" fill="#323232" font-weight="400" align="middle" lineHeight="125%" anchor="middle" family="微软雅黑" size="13px" weight="400" font-style="" opacity="1" y="8.875" transform="rotate(0)"><tspan id="SvgjsTspan1151" dy="16" x="50"><tspan id="SvgjsTspan1152" style="text-decoration:;">oldVnode 有</tspan></tspan><tspan id="SvgjsTspan1153" dy="16" x="50"><tspan id="SvgjsTspan1154" style="text-decoration:;">子节点、</tspan></tspan><tspan id="SvgjsTspan1155" dy="16" x="50"><tspan id="SvgjsTspan1156" style="text-decoration:;">vnode 没有</tspan></tspan></text></g></g><g id="SvgjsG1157" transform="translate(242,535)"><path id="SvgjsPath1158" d="M 0 4Q 0 0 4 0L 96 0Q 100 0 100 4L 100 66Q 100 70 96 70L 4 70Q 0 70 0 66Z" stroke="rgba(50,50,50,1)" stroke-width="2" fill-opacity="1" fill="#ffffff"></path><g id="SvgjsG1159"><text id="SvgjsText1160" font-family="微软雅黑" text-anchor="middle" font-size="13px" width="80px" fill="#323232" font-weight="400" align="middle" lineHeight="125%" anchor="middle" family="微软雅黑" size="13px" weight="400" font-style="" opacity="1" y="0.875" transform="rotate(0)"><tspan id="SvgjsTspan1161" dy="16" x="50"><tspan id="SvgjsTspan1162" style="text-decoration:;"> vnode有子节</tspan></tspan><tspan id="SvgjsTspan1163" dy="16" x="50"><tspan id="SvgjsTspan1164" style="text-decoration:;">点、</tspan></tspan><tspan id="SvgjsTspan1165" dy="16" x="50"><tspan id="SvgjsTspan1166" style="text-decoration:;">oldVnode 没</tspan></tspan><tspan id="SvgjsTspan1167" dy="16" x="50"><tspan id="SvgjsTspan1168" style="text-decoration:;">有</tspan></tspan></text></g></g><g id="SvgjsG1169" transform="translate(242,274)"><path id="SvgjsPath1170" d="M 0 4Q 0 0 4 0L 96 0Q 100 0 100 4L 100 66Q 100 70 96 70L 4 70Q 0 70 0 66Z" stroke="rgba(50,50,50,1)" stroke-width="2" fill-opacity="1" fill="#ffffff"></path><g id="SvgjsG1171"><text id="SvgjsText1172" font-family="微软雅黑" text-anchor="middle" font-size="13px" width="80px" fill="#323232" font-weight="400" align="middle" lineHeight="125%" anchor="middle" family="微软雅黑" size="13px" weight="400" font-style="" opacity="1" y="8.875" transform="rotate(0)"><tspan id="SvgjsTspan1173" dy="16" x="50"><tspan id="SvgjsTspan1174" style="text-decoration:;">oldVnode、</tspan></tspan><tspan id="SvgjsTspan1175" dy="16" x="50"><tspan id="SvgjsTspan1176" style="text-decoration:;">vnode 都是文</tspan></tspan><tspan id="SvgjsTspan1177" dy="16" x="50"><tspan id="SvgjsTspan1178" style="text-decoration:;">本节点</tspan></tspan></text></g></g><g id="SvgjsG1179"><path id="SvgjsPath1180" d="M253.75 161L292 161L292 221.39999999999998" stroke="#323232" stroke-width="2" fill="none" marker-end="url(#SvgjsMarker1181)"></path><rect id="SvgjsRect1183" width="22" height="16" x="281" y="164.075" fill="#ffffff"></rect><text id="SvgjsText1184" font-family="微软雅黑" text-anchor="middle" font-size="13px" width="22px" fill="#323232" font-weight="400" align="top" lineHeight="16px" anchor="middle" family="微软雅黑" size="13px" weight="400" font-style="" opacity="1" y="162.45" transform="rotate(0)"><tspan id="SvgjsTspan1185" dy="16" x="292"><tspan id="SvgjsTspan1186" style="text-decoration:;">Yes</tspan></tspan></text></g></svg>