<svg id="SvgjsSvg1006" width="1127.890625" height="559.234375" xmlns="http://www.w3.org/2000/svg" version="1.1" xmlns:xlink="http://www.w3.org/1999/xlink" xmlns:svgjs="http://svgjs.com/svgjs"><defs id="SvgjsDefs1007"><marker id="SvgjsMarker1034" markerWidth="14" markerHeight="10" refX="10" refY="5" viewBox="0 0 14 10" orient="auto" markerUnits="userSpaceOnUse" stroke-dasharray="0,0"><path id="SvgjsPath1035" d="M0,0 L14,5 L0,10 L0,0" fill="#323232" stroke="#323232" stroke-width="1"></path></marker><marker id="SvgjsMarker1050" markerWidth="14" markerHeight="10" refX="10" refY="5" viewBox="0 0 14 10" orient="auto" markerUnits="userSpaceOnUse" stroke-dasharray="0,0"><path id="SvgjsPath1051" d="M0,0 L14,5 L0,10 L0,0" fill="#323232" stroke="#323232" stroke-width="1"></path></marker><marker id="SvgjsMarker1068" markerWidth="14" markerHeight="10" refX="10" refY="5" viewBox="0 0 14 10" orient="auto" markerUnits="userSpaceOnUse" stroke-dasharray="0,0"><path id="SvgjsPath1069" d="M0,0 L14,5 L0,10 L0,0" fill="#323232" stroke="#323232" stroke-width="1"></path></marker><marker id="SvgjsMarker1084" markerWidth="14" markerHeight="10" refX="10" refY="5" viewBox="0 0 14 10" orient="auto" markerUnits="userSpaceOnUse" stroke-dasharray="0,0"><path id="SvgjsPath1085" d="M0,0 L14,5 L0,10 L0,0" fill="#323232" stroke="#323232" stroke-width="1"></path></marker><marker id="SvgjsMarker1092" markerWidth="14" markerHeight="10" refX="10" refY="5" viewBox="0 0 14 10" orient="auto" markerUnits="userSpaceOnUse" stroke-dasharray="0,0"><path id="SvgjsPath1093" d="M0,0 L14,5 L0,10 L0,0" fill="#323232" stroke="#323232" stroke-width="1"></path></marker><marker id="SvgjsMarker1108" markerWidth="14" markerHeight="10" refX="10" refY="5" viewBox="0 0 14 10" orient="auto" markerUnits="userSpaceOnUse" stroke-dasharray="0,0"><path id="SvgjsPath1109" d="M0,0 L14,5 L0,10 L0,0" fill="#323232" stroke="#323232" stroke-width="1"></path></marker><marker id="SvgjsMarker1120" markerWidth="14" markerHeight="10" refX="10" refY="5" viewBox="0 0 14 10" orient="auto" markerUnits="userSpaceOnUse" stroke-dasharray="0,0"><path id="SvgjsPath1121" d="M0,0 L14,5 L0,10 L0,0" fill="#323232" stroke="#323232" stroke-width="1"></path></marker><marker id="SvgjsMarker1128" markerWidth="14" markerHeight="10" refX="10" refY="5" viewBox="0 0 14 10" orient="auto" markerUnits="userSpaceOnUse" stroke-dasharray="0,0"><path id="SvgjsPath1129" d="M0,0 L14,5 L0,10 L0,0" fill="#323232" stroke="#323232" stroke-width="1"></path></marker><marker id="SvgjsMarker1144" markerWidth="14" markerHeight="10" refX="10" refY="5" viewBox="0 0 14 10" orient="auto" markerUnits="userSpaceOnUse" stroke-dasharray="0,0"><path id="SvgjsPath1145" d="M0,0 L14,5 L0,10 L0,0" fill="#323232" stroke="#323232" stroke-width="1"></path></marker></defs><g id="SvgjsG1008" transform="translate(364.63322368420904,25.008223684210535)"><path id="SvgjsPath1009" d="M 0 4Q 0 0 4 0L 235.84210526315866 0Q 239.84210526315866 0 239.84210526315866 4L 239.84210526315866 39.1315789473684Q 239.84210526315866 43.1315789473684 235.84210526315866 43.1315789473684L 4 43.1315789473684Q 0 43.1315789473684 0 39.1315789473684Z" stroke="rgba(50,50,50,1)" stroke-width="2" fill-opacity="1" fill="#ffffff"></path><g id="SvgjsG1010"><text id="SvgjsText1011" font-family="微软雅黑" text-anchor="middle" font-size="13px" width="220px" fill="#323232" font-weight="400" align="middle" lineHeight="125%" anchor="middle" family="微软雅黑" size="13px" weight="400" font-style="" opacity="1" y="11.940789473684202" transform="rotate(0)"><tspan id="SvgjsTspan1012" dy="16" x="120"><tspan id="SvgjsTspan1013" style="text-decoration:;">display、float、position 的关系</tspan></tspan></text></g></g><g id="SvgjsG1014" transform="translate(25.001644736842124,267.8766447368421)"><path id="SvgjsPath1015" d="M 0 4Q 0 0 4 0L 96 0Q 100 0 100 4L 100 66Q 100 70 96 70L 4 70Q 0 70 0 66Z" stroke="rgba(50,50,50,1)" stroke-width="2" fill-opacity="1" fill="#ffffff"></path><g id="SvgjsG1016"><text id="SvgjsText1017" font-family="微软雅黑" text-anchor="middle" font-size="13px" width="80px" fill="#323232" font-weight="400" align="middle" lineHeight="125%" anchor="middle" family="微软雅黑" size="13px" weight="400" font-style="" opacity="1" y="8.875" transform="rotate(0)"><tspan id="SvgjsTspan1018" dy="16" x="50"><tspan id="SvgjsTspan1019" style="text-decoration:;">display 属性</tspan></tspan><tspan id="SvgjsTspan1020" dy="16" x="50"><tspan id="SvgjsTspan1021" style="text-decoration:;">值是否是 </tspan></tspan><tspan id="SvgjsTspan1022" dy="16" x="50"><tspan id="SvgjsTspan1023" style="text-decoration:;">none</tspan></tspan></text></g></g><g id="SvgjsG1024" transform="translate(129.21217105263162,140.2976973684211)"><path id="SvgjsPath1025" d="M 0 4Q 0 0 4 0L 135.4736842105263 0Q 139.4736842105263 0 139.4736842105263 4L 139.4736842105263 41.73684210526312Q 139.4736842105263 45.73684210526312 135.4736842105263 45.73684210526312L 4 45.73684210526312Q 0 45.73684210526312 0 41.73684210526312Z" stroke="rgba(50,50,50,1)" stroke-width="2" fill-opacity="1" fill="#ffffff"></path><g id="SvgjsG1026"><text id="SvgjsText1027" font-family="微软雅黑" text-anchor="middle" font-size="13px" width="120px" fill="#323232" font-weight="400" align="middle" lineHeight="125%" anchor="middle" family="微软雅黑" size="13px" weight="400" font-style="" opacity="1" y="4.743421052631561" transform="rotate(0)"><tspan id="SvgjsTspan1028" dy="16" x="70"><tspan id="SvgjsTspan1029" style="text-decoration:;">position 和 float 不</tspan></tspan><tspan id="SvgjsTspan1030" dy="16" x="70"><tspan id="SvgjsTspan1031" style="text-decoration:;">影响元素最后的表现</tspan></tspan></text></g></g><g id="SvgjsG1032"><path id="SvgjsPath1033" d="M75.00164473684214 266.8766447368421L75.00164473684214 163.16611842105266L125.61217105263162 163.16611842105266" stroke="#323232" stroke-width="2" fill="none" marker-end="url(#SvgjsMarker1034)"></path><rect id="SvgjsRect1036" width="13" height="16" x="68.50164473684214" y="181.7161184210526" fill="#ffffff"></rect><text id="SvgjsText1037" font-family="微软雅黑" text-anchor="middle" font-size="13px" width="13px" fill="#323232" font-weight="400" align="top" lineHeight="16px" anchor="middle" family="微软雅黑" size="13px" weight="400" font-style="" opacity="1" y="180.0911184210526" transform="rotate(0)"><tspan id="SvgjsTspan1038" dy="16" x="75.00164473684214"><tspan id="SvgjsTspan1039" style="text-decoration:;">是</tspan></tspan></text></g><g id="SvgjsG1040" transform="translate(129.2121710526316,379.4555921052628)"><path id="SvgjsPath1041" d="M 0 4Q 0 0 4 0L 121.78947368421055 0Q 125.78947368421055 0 125.78947368421055 4L 125.78947368421055 42.57894736842144Q 125.78947368421055 46.57894736842144 121.78947368421055 46.57894736842144L 4 46.57894736842144Q 0 46.57894736842144 0 42.57894736842144Z" stroke="rgba(50,50,50,1)" stroke-width="2" fill-opacity="1" fill="#ffffff"></path><g id="SvgjsG1042"><text id="SvgjsText1043" font-family="微软雅黑" text-anchor="middle" font-size="13px" width="106px" fill="#323232" font-weight="400" align="middle" lineHeight="125%" anchor="middle" family="微软雅黑" size="13px" weight="400" font-style="" opacity="1" y="5.164473684210719" transform="rotate(0)"><tspan id="SvgjsTspan1044" dy="16" x="63"><tspan id="SvgjsTspan1045" style="text-decoration:;">position 是否是 </tspan></tspan><tspan id="SvgjsTspan1046" dy="16" x="63"><tspan id="SvgjsTspan1047" style="text-decoration:;">absolute/fixed</tspan></tspan></text></g></g><g id="SvgjsG1048"><path id="SvgjsPath1049" d="M75.00164473684214 338.8766447368412L75.00164473684214 402.74506578947353L125.6121710526316 402.74506578947353" stroke="#323232" stroke-width="2" fill="none" marker-end="url(#SvgjsMarker1050)"></path><rect id="SvgjsRect1052" width="26" height="16" x="62.00164473684214" y="388.1161184210521" fill="#ffffff"></rect><text id="SvgjsText1053" font-family="微软雅黑" text-anchor="middle" font-size="13px" width="26px" fill="#323232" font-weight="400" align="top" lineHeight="16px" anchor="middle" family="微软雅黑" size="13px" weight="400" font-style="" opacity="1" y="386.4911184210521" transform="rotate(0)"><tspan id="SvgjsTspan1054" dy="16" x="75.00164473684214"><tspan id="SvgjsTspan1055" style="text-decoration:;">不是</tspan></tspan></text></g><g id="SvgjsG1056" transform="translate(246.0542763157896,221.56085526315823)"><path id="SvgjsPath1057" d="M 0 4Q 0 0 4 0L 150.21052631579016 0Q 154.21052631579016 0 154.21052631579016 4L 154.21052631579016 55.21052631578914Q 154.21052631579016 59.21052631578914 150.21052631579016 59.21052631578914L 4 59.21052631578914Q 0 59.21052631578914 0 55.21052631578914Z" stroke="rgba(50,50,50,1)" stroke-width="2" fill-opacity="1" fill="#ffffff"></path><g id="SvgjsG1058"><text id="SvgjsText1059" font-family="微软雅黑" text-anchor="middle" font-size="13px" width="135px" fill="#323232" font-weight="400" align="middle" lineHeight="125%" anchor="middle" family="微软雅黑" size="13px" weight="400" font-style="" opacity="1" y="3.4802631578945693" transform="rotate(0)"><tspan id="SvgjsTspan1060" dy="16" x="77.5"><tspan id="SvgjsTspan1061" style="text-decoration:;">float 失效，并且 </tspan></tspan><tspan id="SvgjsTspan1062" dy="16" x="77.5"><tspan id="SvgjsTspan1063" style="text-decoration:;">display 应该被设置为 </tspan></tspan><tspan id="SvgjsTspan1064" dy="16" x="77.5"><tspan id="SvgjsTspan1065" style="text-decoration:;">block 或者 table</tspan></tspan></text></g></g><g id="SvgjsG1066"><path id="SvgjsPath1067" d="M192.10690789473676 378.4555921052628L192.10690789473676 251.16611842105283L242.45427631578957 251.16611842105283" stroke="#323232" stroke-width="2" fill="none" marker-end="url(#SvgjsMarker1068)"></path><rect id="SvgjsRect1070" width="13" height="16" x="185.60690789473676" y="281.6371710526314" fill="#ffffff"></rect><text id="SvgjsText1071" font-family="微软雅黑" text-anchor="middle" font-size="13px" width="13px" fill="#323232" font-weight="400" align="top" lineHeight="16px" anchor="middle" family="微软雅黑" size="13px" weight="400" font-style="" opacity="1" y="280.0121710526314" transform="rotate(0)"><tspan id="SvgjsTspan1072" dy="16" x="192.10690789473676"><tspan id="SvgjsTspan1073" style="text-decoration:;">是</tspan></tspan></text></g><g id="SvgjsG1074" transform="translate(520.264802631579,302.87664473684214)"><path id="SvgjsPath1075" d="M 0 4Q 0 0 4 0L 127.84210526315906 0Q 131.84210526315906 0 131.84210526315906 4L 131.84210526315906 72.57894736842093Q 131.84210526315906 76.57894736842093 127.84210526315906 76.57894736842093L 4 76.57894736842093Q 0 76.57894736842093 0 72.57894736842093Z" stroke="rgba(50,50,50,1)" stroke-width="2" fill-opacity="1" fill="#ffffff"></path><g id="SvgjsG1076"><text id="SvgjsText1077" font-family="微软雅黑" text-anchor="middle" font-size="13px" width="112px" fill="#323232" font-weight="400" align="middle" lineHeight="125%" anchor="middle" family="微软雅黑" size="13px" weight="400" font-style="" opacity="1" y="20.164473684210463" transform="rotate(0)"><tspan id="SvgjsTspan1078" dy="16" x="66"><tspan id="SvgjsTspan1079" style="text-decoration:;">判断 float 是否为 </tspan></tspan><tspan id="SvgjsTspan1080" dy="16" x="66"><tspan id="SvgjsTspan1081" style="text-decoration:;">none</tspan></tspan></text></g></g><g id="SvgjsG1082"><path id="SvgjsPath1083" d="M192.10690789473676 427.0345394736842L192.10690789473676 502.4819078947356L247.71743421052582 502.4819078947356" stroke="#323232" stroke-width="2" fill="none" marker-end="url(#SvgjsMarker1084)"></path><rect id="SvgjsRect1086" width="26" height="16" x="179.10690789473676" y="484.56348684210445" fill="#ffffff"></rect><text id="SvgjsText1087" font-family="微软雅黑" text-anchor="middle" font-size="13px" width="26px" fill="#323232" font-weight="400" align="top" lineHeight="16px" anchor="middle" family="微软雅黑" size="13px" weight="400" font-style="" opacity="1" y="482.93848684210445" transform="rotate(0)"><tspan id="SvgjsTspan1088" dy="16" x="192.10690789473676"><tspan id="SvgjsTspan1089" style="text-decoration:;">不是</tspan></tspan></text></g><g id="SvgjsG1090"><path id="SvgjsPath1091" d="M586.1858552631585 301.87664473684214L586.1858552631585 251.16611842105306L403.8648026315791 251.16611842105306" stroke="#323232" stroke-width="2" fill="none" marker-end="url(#SvgjsMarker1092)"></path><rect id="SvgjsRect1094" width="60" height="16" x="490.3805921052633" y="243.16611842105306" fill="#ffffff"></rect><text id="SvgjsText1095" font-family="微软雅黑" text-anchor="middle" font-size="13px" width="60px" fill="#323232" font-weight="400" align="top" lineHeight="16px" anchor="middle" family="微软雅黑" size="13px" weight="400" font-style="" opacity="1" y="241.54111842105306" transform="rotate(0)"><tspan id="SvgjsTspan1096" dy="16" x="520.3805921052633"><tspan id="SvgjsTspan1097" style="text-decoration:;">不是 none</tspan></tspan></text></g><g id="SvgjsG1098" transform="translate(251.31743421052585,470.24506578947245)"><path id="SvgjsPath1099" d="M 0 4Q 0 0 4 0L 274.42105263157896 0Q 278.42105263157896 0 278.42105263157896 4L 278.42105263157896 60.47368421052636Q 278.42105263157896 64.47368421052636 274.42105263157896 64.47368421052636L 4 64.47368421052636Q 0 64.47368421052636 0 60.47368421052636Z" stroke="rgba(50,50,50,1)" stroke-width="2" fill-opacity="1" fill="#ffffff"></path><g id="SvgjsG1100"><text id="SvgjsText1101" font-family="微软雅黑" text-anchor="middle" font-size="13px" width="259px" fill="#323232" font-weight="400" align="middle" lineHeight="125%" anchor="middle" family="微软雅黑" size="13px" weight="400" font-style="" opacity="1" y="14.111842105263179" transform="rotate(0)"><tspan id="SvgjsTspan1102" dy="16" x="139.5"><tspan id="SvgjsTspan1103" style="text-decoration:;">如果 position 为 relative 并且 float 存在，</tspan></tspan><tspan id="SvgjsTspan1104" dy="16" x="139.5"><tspan id="SvgjsTspan1105" style="text-decoration:;">则 relative 相对于 float 后的最终位置定位</tspan></tspan></text></g></g><g id="SvgjsG1106"><path id="SvgjsPath1107" d="M390.5279605263153 469.24506578947245L390.5279605263153 341.1661184210526L516.6648026315789 341.1661184210526" stroke="#323232" stroke-width="2" fill="none" marker-end="url(#SvgjsMarker1108)"></path></g><g id="SvgjsG1110" transform="translate(771.84375,306.1661184210526)"><path id="SvgjsPath1111" d="M 0 4Q 0 0 4 0L 125.4736842105267 0Q 129.4736842105267 0 129.4736842105267 4L 129.4736842105267 66Q 129.4736842105267 70 125.4736842105267 70L 4 70Q 0 70 0 66Z" stroke="rgba(50,50,50,1)" stroke-width="2" fill-opacity="1" fill="#ffffff"></path><g id="SvgjsG1112"><text id="SvgjsText1113" font-family="微软雅黑" text-anchor="middle" font-size="13px" width="110px" fill="#323232" font-weight="400" align="middle" lineHeight="125%" anchor="middle" family="微软雅黑" size="13px" weight="400" font-style="" opacity="1" y="16.875" transform="rotate(0)"><tspan id="SvgjsTspan1114" dy="16" x="65"><tspan id="SvgjsTspan1115" style="text-decoration:;">判断该元素是否为</tspan></tspan><tspan id="SvgjsTspan1116" dy="16" x="65"><tspan id="SvgjsTspan1117" style="text-decoration:;">根元素</tspan></tspan></text></g></g><g id="SvgjsG1118"><path id="SvgjsPath1119" d="M653.106907894738 341.1661184210526L711.975328947369 341.1661184210526L711.975328947369 341.1661184210526L768.24375 341.1661184210526" stroke="#323232" stroke-width="2" fill="none" marker-end="url(#SvgjsMarker1120)"></path><rect id="SvgjsRect1122" width="47" height="16" x="687.1753289473689" y="333.1661184210526" fill="#ffffff"></rect><text id="SvgjsText1123" font-family="微软雅黑" text-anchor="middle" font-size="13px" width="47px" fill="#323232" font-weight="400" align="top" lineHeight="16px" anchor="middle" family="微软雅黑" size="13px" weight="400" font-style="" opacity="1" y="331.5411184210526" transform="rotate(0)"><tspan id="SvgjsTspan1124" dy="16" x="710.6753289473689"><tspan id="SvgjsTspan1125" style="text-decoration:;">是 none</tspan></tspan></text></g><g id="SvgjsG1126"><path id="SvgjsPath1127" d="M836.5805921052633 305.1661184210526L836.5805921052633 191.56085526315823L323.1595394736846 191.56085526315823L323.1595394736846 217.96085526315824" stroke="#323232" stroke-width="2" fill="none" marker-end="url(#SvgjsMarker1128)"></path><rect id="SvgjsRect1130" width="52" height="16" x="597.4726973684212" y="183.5608552631582" fill="#ffffff"></rect><text id="SvgjsText1131" font-family="微软雅黑" text-anchor="middle" font-size="13px" width="52px" fill="#323232" font-weight="400" align="top" lineHeight="16px" anchor="middle" family="微软雅黑" size="13px" weight="400" font-style="" opacity="1" y="181.9358552631582" transform="rotate(0)"><tspan id="SvgjsTspan1132" dy="16" x="623.4726973684212"><tspan id="SvgjsTspan1133" style="text-decoration:;">是根元素</tspan></tspan></text></g><g id="SvgjsG1134" transform="translate(1002.8963815789475,309.4555921052635)"><path id="SvgjsPath1135" d="M 0 4Q 0 0 4 0L 96 0Q 100 0 100 4L 100 66Q 100 70 96 70L 4 70Q 0 70 0 66Z" stroke="rgba(50,50,50,1)" stroke-width="2" fill-opacity="1" fill="#ffffff"></path><g id="SvgjsG1136"><text id="SvgjsText1137" font-family="微软雅黑" text-anchor="middle" font-size="13px" width="80px" fill="#323232" font-weight="400" align="middle" lineHeight="125%" anchor="middle" family="微软雅黑" size="13px" weight="400" font-style="" opacity="1" y="16.875" transform="rotate(0)"><tspan id="SvgjsTspan1138" dy="16" x="50"><tspan id="SvgjsTspan1139" style="text-decoration:;">保持 display </tspan></tspan><tspan id="SvgjsTspan1140" dy="16" x="50"><tspan id="SvgjsTspan1141" style="text-decoration:;">属性不变</tspan></tspan></text></g></g><g id="SvgjsG1142"><path id="SvgjsPath1143" d="M902.3174342105266 341.1661184210526L952.1069078947371 341.1661184210526L952.1069078947371 344.4555921052635L999.2963815789476 344.4555921052635" stroke="#323232" stroke-width="2" fill="none" marker-end="url(#SvgjsMarker1144)"></path><rect id="SvgjsRect1146" width="65" height="16" x="919.6069078947371" y="333.510855263158" fill="#ffffff"></rect><text id="SvgjsText1147" font-family="微软雅黑" text-anchor="middle" font-size="13px" width="65px" fill="#323232" font-weight="400" align="top" lineHeight="16px" anchor="middle" family="微软雅黑" size="13px" weight="400" font-style="" opacity="1" y="331.885855263158" transform="rotate(0)"><tspan id="SvgjsTspan1148" dy="16" x="952.1069078947371"><tspan id="SvgjsTspan1149" style="text-decoration:;">不是根元素</tspan></tspan></text></g></svg>